<?xml version="1.0" encoding="UTF-8"?>
<!DOCTYPE svg PUBLIC "-//W3C//DTD SVG 1.1//EN" "http://www.w3.org/Graphics/SVG/1.1/DTD/svg11.dtd">
<!-- Creator: CorelDRAW 2019 (64 Bit) -->
<svg xmlns="http://www.w3.org/2000/svg" xml:space="preserve" width="160mm" height="300mm" version="1.1" style="shape-rendering:geometricPrecision; text-rendering:geometricPrecision; image-rendering:optimizeQuality; fill-rule:evenodd; clip-rule:evenodd"
viewBox="0 0 16000 30000"
 xmlns:xlink="http://www.w3.org/1999/xlink"
 xmlns:xodm="http://www.corel.com/coreldraw/odm/2003">
 <defs>
  <style type="text/css">
   <![CDATA[
    .fil1 {fill:url(#id0);fill-rule:nonzero}
    .fil3 {fill:url(#id1);fill-rule:nonzero}
    .fil2 {fill:url(#id2);fill-rule:nonzero}
    .fil0 {fill:url(#id3);fill-rule:nonzero}
   ]]>
  </style>
  <linearGradient id="id0" gradientUnits="userSpaceOnUse" x1="7999" y1="30002.93" x2="7999" y2="24678.07">
   <stop offset="0" style="stop-opacity:1; stop-color:#007E7A"/>
   <stop offset="1" style="stop-opacity:1; stop-color:#339895"/>
  </linearGradient>
  <linearGradient id="id1" gradientUnits="userSpaceOnUse" x1="7999" y1="24263.08" x2="7999" y2="20538.37">
   <stop offset="0" style="stop-opacity:1; stop-color:#66B2AF"/>
   <stop offset="1" style="stop-opacity:1; stop-color:#99CCCA"/>
  </linearGradient>
  <linearGradient id="id2" gradientUnits="userSpaceOnUse" x1="7999" y1="26776.19" x2="7999" y2="22335.4">
   <stop offset="0" style="stop-opacity:1; stop-color:#339895"/>
   <stop offset="1" style="stop-opacity:1; stop-color:#66B2AF"/>
  </linearGradient>
  <radialGradient id="id3" gradientUnits="userSpaceOnUse" gradientTransform="matrix(-0.00650722 -3.08525 2.77388 -0.00723762 -116253 71472)" cx="8478.98" cy="44986.47" r="4309.99" fx="8478.98" fy="44986.47">
   <stop offset="0" style="stop-opacity:1; stop-color:#339895"/>
   <stop offset="0.290196" style="stop-opacity:1; stop-color:#66B2AF"/>
   <stop offset="0.631373" style="stop-opacity:1; stop-color:#99CCCA"/>
   <stop offset="0.211765" style="stop-opacity:1; stop-color:#80BFBD"/>
   <stop offset="1" style="stop-opacity:1; stop-color:#CCE6E5"/>
  </radialGradient>
 </defs>
 <g id="Camada_x0020_1">
  <metadata id="CorelCorpID_0Corel-Layer"/>
  <polygon class="fil0" points="15999,29597.37 -1,29597.37 -1,2.94 15999,2.94 15999,29597.37 "/>
  <path class="fil1" d="M15999 30002.93l-16000 0 0 -5022.11c555.35,-109.47 1118.59,-198.65 1694.11,-252.05 1128.27,-104.69 2212.22,-42.87 3306.96,144.65 509.88,87.34 986.78,213.26 1471.04,329.7 483.04,116.14 961.42,235.2 1441.28,366.15 948.26,258.79 1884.08,525.74 2861.09,744.38 396.81,88.8 1111.15,224.03 1510.53,284.16 1306.67,196.71 2473.78,227.55 3714.99,108.17l0 3296.95 0 0z"/>
  <path class="fil2" d="M-1 24980.82l0 -717.74c587.39,-166.4 1125.57,-326.78 1549.16,-449.2 1896.71,-548.19 3872.02,-952.89 5905.12,-1176.56 2191.35,-241.08 4443.22,-341.05 6666.36,-288.1 641.31,15.27 1264.67,86.4 1879.36,184.37l0 4172.39c-1241.21,119.38 -2408.32,88.54 -3714.99,-108.17 -399.38,-60.13 -1113.72,-195.36 -1510.53,-284.16 -977.01,-218.64 -1912.83,-485.59 -2861.09,-744.38 -479.86,-130.95 -958.24,-250.01 -1441.28,-366.15 -484.26,-116.44 -961.16,-242.36 -1471.04,-329.7 -1094.74,-187.52 -2178.69,-249.34 -3306.96,-144.65 -575.52,53.4 -1138.76,142.58 -1694.11,252.05z"/>
  <path class="fil3" d="M-1 24263.08l0 -3629.91c12.07,-1.04 23.87,-1.89 35.26,-2.44l791.7 -65.93c39.29,-6.74 61.68,-5.14 103.59,-5.54 46.76,-0.46 49.66,-8.21 90.04,-10.69 141.26,-8.65 269.19,-9.62 416.22,-9.86l1256.34 -0.34c146.54,0 266.98,7.75 416.23,9.84 48.74,0.69 53.27,9.46 98.79,11l922.73 40.34c45.7,1.55 49.98,10.5 98.83,10.97 117.22,1.14 178.83,18.98 298.91,19.86 49.14,0.36 53.15,9.48 98.94,10.84 36.06,1.05 60.29,-1.98 95.91,4 68.28,11.48 131.06,8.66 200.2,19.03l1724.03 208.18c290.65,46.28 643.77,94.33 931.29,153.7 289.16,59.71 613.19,115.52 897.93,181.28l637.52 127.99c31.92,6.94 50.13,12.33 82.72,18.98l1090.07 209.43 1492.51 234.95c129.17,16.85 253.65,25.55 385.39,44.82 167.12,24.43 413.12,35.28 591.58,57.06l405.79 21.69c49.69,0.05 58.15,8.14 99.1,10.65 31.53,1.93 67.76,-0.44 99.8,-0.4 49.69,0.06 58.15,8.14 99.08,10.65 90.55,5.55 224.05,-8.14 316,0.49 268.96,25.25 401.09,-0.56 624.28,-0.53 127.58,0.01 497.5,-7.25 613.45,-22.01 124.78,-15.89 267.68,-18.49 398.58,-29.87l587.19 -70.69 0 712.97c-614.69,-97.97 -1238.05,-169.1 -1879.36,-184.37 -2223.14,-52.95 -4475.01,47.02 -6666.36,288.1 -2033.1,223.67 -4008.41,628.37 -5905.12,1176.56 -423.59,122.42 -961.77,282.8 -1549.16,449.2z"/>
 </g>
</svg>
